<?xml version="1.0" encoding="UTF-8" standalone="no"?>
<svg
   viewBox="0 0 256 48"
   version="1.1"
   id="svg1"
   xmlns="http://www.w3.org/2000/svg"
   xmlns:svg="http://www.w3.org/2000/svg">
  <defs
     id="defs1" />
  <path
     style="fill:#000000;stroke-width:1.18958"
     d="M 24.396259,0.33898325 8.8470707,5.4878016 11.630119,7.4937982 27.198279,2.3386409 Z M 11.630119,7.4937982 8.8470707,5.4880264 V 39.969401 l 2.7830483,2.272386 z M 27.758439,2.7383838 12.326015,7.8484912 V 42.809503 l 2.783047,2.272432 V 9.9358209 L 30.638513,4.7935232 Z m 3.498729,2.4966495 -15.45239,5.1166277 v 18.429483 16.868462 l 2.783227,2.272431 20.732086,-6.86455 V 24.00352 l -2.783046,-2.087331 -2.399806,0.794585 v -0.646171 l 1.704089,-0.564252 -1.704089,-1.27809 V 7.2903524 Z m 0,3.0089289 V 23.664518 L 18.588005,27.859591 V 27.791705 12.438993 Z M 30.638513,9.1816106 27.758439,10.1354 v 11.032468 l -8.474716,2.806292 v 3.008884 l 11.3083,-3.744525 0.04631,0.03598 v -0.04946 -3.008705 z m -3.440234,1.1392974 -2.80202,0.927848 v 7.507483 l 0.01349,0.0091 -5.124358,1.696984 v 2.927373 l 7.914554,-2.620787 v -2.927625 z m 9.338766,14.604164 v 13.859982 l -17.94904,5.942998 v -11.11016 -2.3945 -0.354737 l 15.549009,-5.148638 v 0 0 z m -0.695717,0.958465 -2.783229,0.921599 v 9.139591 l -13.774376,4.56177 v 3.19358 l 16.557605,-5.482693 z m -3.478946,1.151932 -2.783047,0.921731 v 5.147423 l -10.295612,3.409032 v 3.193985 l 13.078659,-4.330807 z"
     id="path1" />
</svg>
