<svg width="63" height="76" xmlns="http://www.w3.org/2000/svg" xmlns:xlink="http://www.w3.org/1999/xlink" xml:space="preserve" overflow="hidden"><defs><clipPath id="clip0"><rect x="346" y="0" width="63" height="76"/></clipPath><clipPath id="clip1"><rect x="346" y="0" width="63" height="76"/></clipPath><clipPath id="clip2"><rect x="347" y="0" width="62" height="76"/></clipPath><clipPath id="clip3"><rect x="347" y="0" width="62" height="76"/></clipPath><clipPath id="clip4"><rect x="347" y="0" width="62" height="76"/></clipPath></defs><g clip-path="url(#clip0)" transform="translate(-346 0)"><g clip-path="url(#clip1)"><g clip-path="url(#clip2)"><g clip-path="url(#clip3)"><g clip-path="url(#clip4)"><path d="M59.8956 25.9084C59.4548 26.2504 51.6724 30.6356 51.6724 40.3864 51.6724 51.6648 61.5752 55.6548 61.8716 55.7536 61.826 55.9968 60.2984 61.218 56.6504 66.538 53.3976 71.2196 50.0004 75.8936 44.8324 75.8936 39.6644 75.8936 38.3344 72.8916 32.3684 72.8916 26.5544 72.8916 24.4872 75.9924 19.76 75.9924 15.0328 75.9924 11.7344 71.6604 7.942 66.3404 3.5492 60.0932 0 50.388 0 41.1768 0 26.4024 9.6064 18.5668 19.0608 18.5668 24.0844 18.5668 28.272 21.8652 31.426 21.8652 34.428 21.8652 39.1096 18.3692 44.8248 18.3692 46.9908 18.3692 54.7732 18.5668 59.8956 25.9084ZM42.1116 12.1144C44.4752 9.31 46.1472 5.4188 46.1472 1.5276 46.1472 0.988 46.1016 0.4408 46.0028-2.70006e-15 42.1572 0.1444 37.582 2.5612 34.8232 5.7608 32.6572 8.2232 30.6356 12.1144 30.6356 16.0588 30.6356 16.6516 30.7344 17.2444 30.78 17.4344 31.0232 17.48 31.4184 17.5332 31.8136 17.5332 35.264 17.5332 39.6036 15.2228 42.1116 12.1144Z" fill="#262626" fill-rule="nonzero" fill-opacity="1" transform="matrix(1.0022 0 0 1 347 0)"/></g></g></g></g></g></svg>