<svg width="76" height="76" xmlns="http://www.w3.org/2000/svg" xmlns:xlink="http://www.w3.org/1999/xlink" xml:space="preserve" overflow="hidden"><defs><clipPath id="clip0"><rect x="280" y="0" width="76" height="76"/></clipPath><clipPath id="clip1"><rect x="280" y="0" width="76" height="76"/></clipPath></defs><g clip-path="url(#clip0)" transform="translate(-280 0)"><g clip-path="url(#clip1)"><path d="M348.44 61.0217C346.211 60.1089 345.258 58.8976 345.35 57.0903 345.445 54.9808 344.248 53.4356 343.68 52.8251 344.023 51.5134 345.027 46.9758 343.681 43.0345 342.235 38.8158 337.819 32.3727 333.263 26.0393 331.398 23.4383 331.31 20.6111 331.208 17.3373 331.11 14.2148 331 10.6755 329.259 6.74087 327.366 2.45669 323.566-2.69795e-15 318.835-2.69795e-15 316.021-2.69795e-15 313.132 0.879612 310.909 2.41308 306.356 5.55501 306.958 12.4053 307.356 16.9381 307.411 17.5589 307.462 18.1452 307.492 18.6458 307.757 23.0852 307.516 25.425 307.2 26.1362 306.996 26.6009 305.991 27.9236 304.928 29.324 303.829 30.7722 302.582 32.4138 301.56 33.9436 300.341 35.7843 299.356 38.5978 298.405 41.3186 297.708 43.3096 297.05 45.1901 296.41 46.314 295.196 48.4759 295.498 50.4917 295.75 51.4234 295.291 51.7426 294.627 52.3711 294.067 53.5557 293.389 55.0009 292.015 55.7776 289.157 56.3271 287.844 56.5957 286.939 57.1479 286.465 57.9682 285.776 59.162 286.152 60.6621 286.494 61.6872 287 63.1943 286.685 64.1482 286.111 65.88 285.979 66.2797 285.83 66.7322 285.678 67.2313 285.439 68.019 285.525 68.7351 285.934 69.3598 287.013 71.0096 290.162 71.5915 293.404 71.9742 295.339 72.204 297.458 72.9782 299.507 73.7272 301.515 74.4608 303.591 75.2196 305.478 75.4498 305.764 75.4859 306.048 75.5041 306.322 75.5041 309.171 75.5041 310.459 73.6136 310.867 72.8369 311.89 72.6281 315.42 71.9593 319.058 71.8696 322.69 71.7659 326.204 72.483 327.2 72.7061 327.513 73.3051 328.338 74.6734 329.653 75.3783 330.376 75.7735 331.382 76 332.412 76 332.412 76 332.412 76 332.412 76 333.513 76 335.606 75.7399 337.263 73.9968 338.915 72.2456 343.044 70.0099 346.059 68.3775 346.732 68.0132 347.362 67.6723 347.914 67.3646 349.607 66.4257 350.531 65.0841 350.449 63.6839 350.38 62.521 349.61 61.5009 348.44 61.0217ZM310.946 60.6845C310.735 59.1994 308.824 57.7265 306.612 56.0211 304.803 54.6264 302.752 53.0459 302.187 51.7072 301.02 48.9458 301.94 44.0903 303.545 41.59 304.338 40.3381 304.985 38.4396 305.612 36.6036 306.288 34.6211 306.987 32.5713 307.77 31.674 309.008 30.2731 310.153 27.5473 310.356 25.3991 311.516 26.5065 313.315 27.9116 314.977 27.9116 315.233 27.9116 315.482 27.8782 315.719 27.8112 316.857 27.4828 318.529 26.5162 320.147 25.5818 321.542 24.7759 323.261 23.7822 323.909 23.6917 325.018 25.285 331.466 39.5534 332.125 44.1356 332.646 47.7612 332.095 50.7584 331.818 51.9323 331.596 51.9019 331.33 51.8772 331.051 51.8772 329.255 51.8772 328.78 52.8575 328.656 53.4428 328.337 54.9636 328.304 59.8263 328.3 60.919 327.651 61.744 324.367 65.6293 319.652 66.3278 317.732 66.6068 315.938 66.7484 314.322 66.7484 312.941 66.7484 312.059 66.6417 311.693 66.5862L309.324 63.8753C310.258 63.4141 311.192 62.4408 310.946 60.6845ZM313.952 15.9848C313.878 16.0167 313.805 16.0508 313.734 16.0872 313.727 15.9267 313.71 15.764 313.684 15.6008 313.426 14.1119 312.438 13.0312 311.337 13.0312 311.256 13.0312 311.174 13.0374 311.084 13.0512 310.429 13.1603 309.915 13.6524 309.633 14.3501 309.88 12.8192 310.748 11.6856 311.777 11.6856 312.985 11.6856 314.006 13.3143 314.006 15.242 314.006 15.4849 313.988 15.7266 313.952 15.9848ZM323.343 17.1328C323.453 16.7804 323.513 16.3992 323.513 16.0035 323.513 14.2557 322.404 12.8864 320.989 12.8864 319.605 12.8864 318.48 14.2846 318.48 16.0035 318.48 16.1206 318.485 16.2379 318.496 16.3551 318.423 16.3269 318.352 16.2995 318.282 16.2731 318.123 15.7909 318.042 15.2878 318.042 14.7742 318.042 12.6844 319.378 10.9839 321.02 10.9839 322.662 10.9839 323.998 12.6844 323.998 14.7742 323.998 15.6436 323.758 16.4734 323.343 17.1328ZM322.132 21.2004C322.108 21.3061 322.058 21.3529 321.501 21.6424 321.22 21.7887 320.87 21.9709 320.433 22.2375L320.14 22.4147C318.964 23.1273 316.212 24.7966 315.464 24.8945 314.957 24.9628 314.643 24.7659 313.937 24.2863 313.778 24.1779 313.608 24.0628 313.428 23.9469 312.155 23.1119 311.336 22.1921 311.244 21.8326 311.659 21.5119 312.687 20.7093 313.214 20.2341 314.282 19.2403 315.358 18.5725 315.89 18.5725 315.918 18.5725 315.944 18.5745 315.97 18.5795 316.596 18.6899 318.138 19.3056 319.265 19.7551 319.786 19.963 320.236 20.1424 320.552 20.256 321.549 20.5984 322.069 21.0364 322.132 21.2004ZM331.089 67.6404C331.652 65.1035 332.3 61.6524 332.195 59.6178 332.17 59.1555 332.13 58.6525 332.09 58.166 332.016 57.2565 331.906 55.9047 332.019 55.5038 332.042 55.4933 332.067 55.4843 332.094 55.4766 332.099 56.6398 332.352 58.9599 334.207 59.769 334.76 60.0102 335.392 60.1323 336.085 60.1323 337.944 60.1323 340.006 59.2206 340.851 58.3759 341.348 57.8785 341.767 57.27 342.06 56.7881 342.124 56.9757 342.163 57.2209 342.142 57.5369 342.032 59.2525 342.866 61.5285 344.453 62.3673L344.684 62.4886C345.249 62.7851 346.75 63.5733 346.774 63.9471 346.774 63.9473 346.761 63.9912 346.678 64.0689 346.302 64.4125 344.978 65.0883 343.698 65.7419 341.428 66.9011 338.855 68.2151 337.699 69.4306 336.072 71.1429 334.231 72.2932 333.12 72.2932 332.986 72.2932 332.864 72.2762 332.756 72.2418 331.549 71.8656 330.556 70.124 331.089 67.6404ZM289.947 61.1684C289.823 60.5923 289.726 60.1376 289.831 59.697 289.906 59.3706 291.518 59.0207 292.206 58.8715 293.174 58.6614 294.174 58.4444 294.829 58.0472 295.714 57.5112 296.193 56.5227 296.615 55.6506 296.921 55.0199 297.237 54.3678 297.613 54.1537 297.635 54.1413 297.667 54.1268 297.729 54.1268 298.433 54.1268 299.911 55.6077 300.763 56.9331 300.979 57.2672 301.379 57.9368 301.842 58.712 303.227 61.0289 305.123 64.2022 306.113 65.2657 307.006 66.2218 308.45 68.0601 308.095 69.6366 307.835 70.8599 306.45 71.8546 306.123 72.0746 306.004 72.1015 305.858 72.1152 305.685 72.1152 303.79 72.1152 300.038 70.5384 298.022 69.6912L297.724 69.5659C296.599 69.0939 294.761 68.7966 292.984 68.5091 291.57 68.2801 289.634 67.9669 289.313 67.6838 289.053 67.392 289.355 66.4434 289.621 65.6064 289.813 65.0048 290.01 64.3829 290.119 63.7318 290.273 62.6932 290.092 61.8477 289.947 61.1684Z" fill="#262626" fill-rule="nonzero" fill-opacity="1"/></g></g></svg>